<svg width="113" height="113" viewBox="0 0 113 113" fill="none" xmlns="http://www.w3.org/2000/svg">
<g clip-path="url(#clip0)">
<path d="M92.1249 0H20.6812C15.4922 0.00611031 11.2869 4.21142 11.2808 9.40048V103.405C11.2869 108.594 15.4922 112.8 20.6812 112.806H92.1249C97.314 112.8 101.519 108.594 101.525 103.405V9.40048C101.519 4.21142 97.314 0.00611031 92.1249 0ZM37.6021 3.76019H75.204V7.52038H37.6021V3.76019ZM90.2448 11.2806V30.0815H22.5613V11.2806H90.2448ZM97.7652 103.405C97.7652 106.52 95.24 109.046 92.1249 109.046H20.6812C17.5662 109.046 15.041 106.52 15.041 103.405V9.40048C15.041 6.2854 17.5662 3.76019 20.6812 3.76019H33.8419V7.52038H20.6812C19.643 7.52038 18.8011 8.3622 18.8011 9.40048V31.9616C18.8011 32.9999 19.643 33.8417 20.6812 33.8417H92.1249C93.1632 33.8417 94.005 32.9999 94.005 31.9616V9.40048C94.005 8.3622 93.1632 7.52038 92.1249 7.52038H78.9642V3.76019H92.1249C95.24 3.76019 97.7652 6.2854 97.7652 9.40048V103.405Z" fill="#9B2D86"/>
<path d="M56.4029 37.6019C51.2113 37.6019 47.0024 41.8108 47.0024 47.0024C47.0086 52.1915 51.2139 56.3968 56.4029 56.4029C61.5946 56.4029 65.8034 52.1941 65.8034 47.0024C65.8034 41.8108 61.5946 37.6019 56.4029 37.6019ZM56.4029 52.6427C53.2878 52.6427 50.7626 50.1175 50.7626 47.0024C50.7626 43.8873 53.2878 41.3621 56.4029 41.3621C59.518 41.3621 62.0432 43.8873 62.0432 47.0024C62.0432 50.1175 59.518 52.6427 56.4029 52.6427Z" fill="#B33E9C"/>
<path d="M80.8443 37.6019C75.6527 37.6019 71.4438 41.8108 71.4438 47.0024C71.45 52.1915 75.6553 56.3968 80.8443 56.4029C86.036 56.4029 90.2448 52.1941 90.2448 47.0024C90.2448 41.8108 86.036 37.6019 80.8443 37.6019ZM80.8443 52.6427C77.7292 52.6427 75.204 50.1175 75.204 47.0024C75.204 43.8873 77.7292 41.3621 80.8443 41.3621C83.9594 41.3621 86.4846 43.8873 86.4846 47.0024C86.4846 50.1175 83.9594 52.6427 80.8443 52.6427Z" fill="#B33E9C"/>
<path d="M31.9615 37.6019C26.7699 37.6019 22.561 41.8108 22.561 47.0024C22.5671 52.1915 26.7725 56.3968 31.9615 56.4029C37.1532 56.4029 41.362 52.1941 41.362 47.0024C41.362 41.8108 37.1532 37.6019 31.9615 37.6019ZM31.9615 52.6427C28.8464 52.6427 26.3212 50.1175 26.3212 47.0024C26.3212 43.8873 28.8464 41.3621 31.9615 41.3621C35.0766 41.3621 37.6018 43.8873 37.6018 47.0024C37.6018 50.1175 35.0766 52.6427 31.9615 52.6427Z" fill="#B33E9C"/>
<path d="M56.4029 60.1631C51.2113 60.1631 47.0024 64.3719 47.0024 69.5636C47.0086 74.7526 51.2139 78.9579 56.4029 78.964C61.5946 78.964 65.8034 74.7552 65.8034 69.5636C65.8034 64.3719 61.5946 60.1631 56.4029 60.1631ZM56.4029 75.2039C53.2878 75.2039 50.7626 72.6787 50.7626 69.5636C50.7626 66.4485 53.2878 63.9233 56.4029 63.9233C59.518 63.9233 62.0432 66.4485 62.0432 69.5636C62.0432 72.6787 59.518 75.2039 56.4029 75.2039Z" fill="#B33E9C"/>
<path d="M80.8443 60.1631C75.6527 60.1631 71.4438 64.3719 71.4438 69.5636C71.45 74.7526 75.6553 78.9579 80.8443 78.964C86.036 78.964 90.2448 74.7552 90.2448 69.5636C90.2448 64.3719 86.036 60.1631 80.8443 60.1631ZM80.8443 75.2039C77.7292 75.2039 75.204 72.6787 75.204 69.5636C75.204 66.4485 77.7292 63.9233 80.8443 63.9233C83.9594 63.9233 86.4846 66.4485 86.4846 69.5636C86.4846 72.6787 83.9594 75.2039 80.8443 75.2039Z" fill="#B33E9C"/>
<path d="M31.9615 60.1631C26.7699 60.1631 22.561 64.3719 22.561 69.5636C22.5671 74.7526 26.7725 78.9579 31.9615 78.964C37.1532 78.964 41.362 74.7552 41.362 69.5636C41.362 64.3719 37.1532 60.1631 31.9615 60.1631ZM31.9615 75.2039C28.8464 75.2039 26.3212 72.6787 26.3212 69.5636C26.3212 66.4485 28.8464 63.9233 31.9615 63.9233C35.0766 63.9233 37.6018 66.4485 37.6018 69.5636C37.6018 72.6787 35.0766 75.2039 31.9615 75.2039Z" fill="#B33E9C"/>
<path d="M56.4029 82.7244C51.2113 82.7244 47.0024 86.9332 47.0024 92.1248C47.0086 97.3139 51.2139 101.519 56.4029 101.525C61.5946 101.525 65.8034 97.3165 65.8034 92.1248C65.8034 86.9332 61.5946 82.7244 56.4029 82.7244ZM56.4029 97.7651C53.2878 97.7651 50.7626 95.2399 50.7626 92.1248C50.7626 89.0098 53.2878 86.4846 56.4029 86.4846C59.518 86.4846 62.0432 89.0098 62.0432 92.1248C62.0432 95.2399 59.518 97.7651 56.4029 97.7651Z" fill="#B33E9C"/>
<path d="M31.9615 82.7244C26.7699 82.7244 22.561 86.9332 22.561 92.1248C22.5671 97.3139 26.7725 101.519 31.9615 101.525C37.1532 101.525 41.362 97.3165 41.362 92.1248C41.362 86.9332 37.1532 82.7244 31.9615 82.7244ZM31.9615 97.7651C28.8464 97.7651 26.3212 95.2399 26.3212 92.1248C26.3212 89.0098 28.8464 86.4846 31.9615 86.4846C35.0766 86.4846 37.6018 89.0098 37.6018 92.1248C37.6018 95.2399 35.0766 97.7651 31.9615 97.7651Z" fill="#B33E9C"/>
<path d="M88.3647 82.7244H73.3239C72.2857 82.7244 71.4438 83.5662 71.4438 84.6045V103.405C71.4438 104.444 72.2857 105.286 73.3239 105.286H88.3647C89.403 105.286 90.2448 104.444 90.2448 103.405V84.6045C90.2448 83.5662 89.403 82.7244 88.3647 82.7244ZM86.4846 101.525H75.204V86.4846H86.4846V101.525Z" fill="#B33E9C"/>
<path d="M78.9643 22.5613H75.2041V26.3215H78.9643V22.5613Z" fill="#B33E9C"/>
<path d="M86.4848 22.5613H82.7246V26.3215H86.4848V22.5613Z" fill="#B33E9C"/>
<path d="M33.8417 18.801V15.0408H30.0815V18.801H26.3213V22.5612H30.0815V26.3213H33.8417V22.5612H37.6019V18.801H33.8417Z" fill="#B33E9C"/>
<path d="M82.7241 95.8849H80.844C79.8057 95.8849 78.9639 96.7267 78.9639 97.765C78.9639 98.8033 79.8057 99.6451 80.844 99.6451H82.7241C83.7623 99.6451 84.6042 98.8033 84.6042 97.765C84.6042 96.7267 83.7623 95.8849 82.7241 95.8849Z" fill="#B33E9C"/>
</g>
<defs>
<clipPath id="clip0">
<rect width="112.806" height="112.806" fill="white"/>
</clipPath>
</defs>
</svg>
