<svg width="80" height="86" viewBox="0 0 80 86" fill="none" xmlns="http://www.w3.org/2000/svg">
<path d="M41.9797 83.0095H4.56209C3.41974 83.0095 2.49023 82.08 2.49023 80.9376V16.4164C2.49023 15.7287 1.93275 15.1713 1.24511 15.1713C0.557478 15.1713 0 15.7287 0 16.4164V80.9376C0 83.4531 2.04663 85.4997 4.56209 85.4997H41.9797C42.6675 85.4997 43.2248 84.9422 43.2248 84.2546C43.2248 83.567 42.6675 83.0095 41.9797 83.0095Z" fill="#9B2D86"/>
<path d="M10.791 13.6151H26.7284C27.4161 13.6151 27.9736 13.0577 27.9736 12.37C27.9736 11.6824 27.4161 11.1249 26.7284 11.1249H10.791C10.1034 11.1249 9.5459 11.6824 9.5459 12.37C9.5459 13.0577 10.1034 13.6151 10.791 13.6151Z" fill="#9B2D86"/>
<path d="M26.7284 74.2106C27.4161 74.2106 27.9736 73.6531 27.9736 72.9655C27.9736 72.2779 27.4161 71.7204 26.7284 71.7204H10.791C10.1034 71.7204 9.5459 72.2779 9.5459 72.9655C9.5459 73.6531 10.1034 74.2106 10.791 74.2106H26.7284Z" fill="#9B2D86"/>
<path d="M78.0961 74.0249L65.3007 61.2293C65.299 61.2276 65.2972 61.2263 65.2957 61.2246L60.9358 56.8634C62.8121 54.3309 64.2091 51.4658 65.031 48.4192C66.1433 44.2967 66.1961 39.9246 65.1831 35.7749C65.0201 35.1068 64.3462 34.6979 63.6784 34.8605C63.0103 35.0235 62.6009 35.6973 62.7639 36.3652C63.6775 40.1082 63.6302 44.0522 62.627 47.7704C61.593 51.6016 59.5544 55.1189 56.731 57.9422C47.8311 66.8424 33.3491 66.8424 24.4487 57.9422C15.5484 49.042 15.5484 34.5601 24.4487 25.6599C28.7601 21.3483 34.4926 18.974 40.5898 18.974C46.6871 18.974 52.4196 21.3483 56.7311 25.6599C58.5131 27.4421 59.9759 29.4812 61.0781 31.7208C61.3819 32.3377 62.1283 32.5922 62.745 32.288C63.3621 31.9844 63.6161 31.238 63.3125 30.6211C62.6379 29.2508 61.8381 27.9514 60.9286 26.7274V5.06209C60.9285 2.54663 58.8818 0.5 56.3664 0.5H4.56307C2.04761 0.5 0.000976562 2.54663 0.000976562 5.06209V11.1039C0.000976562 11.7915 0.558455 12.349 1.24609 12.349C1.93372 12.349 2.4912 11.7915 2.4912 11.1039V5.06209C2.4912 3.91974 3.42072 2.99022 4.56307 2.99022H56.3664C57.5089 2.99022 58.4383 3.91974 58.4383 5.06209V23.8469C53.6625 19.0987 47.3274 16.4839 40.5898 16.4839C33.8274 16.4839 27.4697 19.1174 22.6879 23.8993C22.6408 23.9465 22.5953 23.9948 22.5486 24.0422H14.5849C13.8973 24.0422 13.3398 24.5997 13.3398 25.2874C13.3398 25.975 13.8973 26.5325 14.5849 26.5325H20.3953C19.6379 27.5327 18.9647 28.5766 18.3757 29.6549H10.792C10.1043 29.6549 9.54684 30.2124 9.54684 30.9C9.54684 31.5876 10.1043 32.1451 10.792 32.1451H17.1877C16.7678 33.1663 16.4172 34.2093 16.1365 35.2675H10.792C10.1043 35.2675 9.54684 35.825 9.54684 36.5126C9.54684 37.2003 10.1043 37.7577 10.792 37.7577H15.6084C14.3638 45.5121 16.7225 53.738 22.6879 59.7034C27.6235 64.6391 34.1068 67.1069 40.5898 67.1069C45.8942 67.1069 51.1982 65.4539 55.655 62.1498L58.4383 64.9322V80.9379C58.4383 82.0803 57.5087 83.0098 56.3664 83.0098H47.2316C46.5438 83.0098 45.9865 83.5673 45.9865 84.2549C45.9865 84.9425 46.5438 85.5 47.2316 85.5H56.3664C58.8818 85.5 60.9285 83.4534 60.9285 80.9379V67.4228L72.8135 79.3076C73.5191 80.0132 74.457 80.4017 75.4548 80.4017C76.4525 80.4017 77.3905 80.013 78.0959 79.3076H78.0961C78.8015 78.6021 79.1901 77.6641 79.1901 76.6663C79.1901 75.6684 78.8015 74.7303 78.0961 74.0249ZM58.4919 59.7033C58.7861 59.4091 59.0701 59.1058 59.3487 58.7983L62.659 62.1096L60.8986 63.8701L57.5893 60.5621C57.8954 60.2845 58.1965 59.9986 58.4919 59.7033ZM76.3353 77.5465C76.1001 77.7818 75.7873 77.9113 75.4548 77.9113C75.1223 77.9113 74.8095 77.7818 74.5744 77.5465L62.6592 65.6315L64.4201 63.8707L76.3352 75.786C76.5703 76.0212 76.6997 76.3336 76.6997 76.6663C76.6999 76.9987 76.5704 77.3113 76.3353 77.5465Z" fill="#9B2D86"/>
<path d="M26.2089 27.421C22.3734 31.2564 20.2612 36.3634 20.2612 41.8014C20.2612 47.2393 22.3736 52.3463 26.2089 56.1817C30.1735 60.1463 35.3812 62.1287 40.5891 62.1287C45.7968 62.1287 51.0047 60.1465 54.9695 56.1817C58.8049 52.3463 60.917 47.2393 60.917 41.8014C60.917 36.3635 58.8048 31.2564 54.9695 27.421C47.0399 19.4914 34.1383 19.4916 26.2089 27.421ZM53.2086 54.4207C49.7291 57.9002 45.16 59.6398 40.5891 59.6395C36.0195 59.639 31.4485 57.8995 27.9696 54.4207C24.6045 51.0555 22.7513 46.574 22.7513 41.8012C22.7513 37.0284 24.6045 32.5467 27.9696 29.1817C31.4488 25.7025 36.0189 23.9629 40.5891 23.9629C45.1593 23.9629 49.7294 25.7025 53.2086 29.1817C56.5737 32.5468 58.4269 37.0284 58.4269 41.8012C58.4269 46.574 56.5735 51.0557 53.2086 54.4207Z" fill="#9B2D86"/>
</svg>
