<svg width="80" height="80" viewBox="0 0 80 80" fill="none" xmlns="http://www.w3.org/2000/svg">
<path d="M47.5 47.5H16.25C15.9184 47.5 15.6006 47.6319 15.3662 47.8662L0.366211 62.8663L2.13371 64.6338L16.7675 50H46.125C45.865 51.4838 45.0487 53.75 42.5 53.75H28.75V56.25H42.5C47.4437 56.25 48.75 51.3438 48.75 48.75C48.75 48.0597 48.1903 47.5 47.5 47.5Z" fill="#9B2D86"/>
<path d="M63.3837 39.115C62.8956 38.627 62.1043 38.627 61.6162 39.115L50.3662 50.365L52.1337 52.1325L62.4012 41.8663C64.0937 44.1114 63.75 47.2853 61.6162 49.1162L46.9825 63.75H21.25C20.9184 63.75 20.6006 63.8819 20.3662 64.1162L11.6162 72.8662L13.3837 74.6337L21.7675 66.25H47.5C47.8317 66.2495 48.1495 66.1173 48.3837 65.8825L63.3837 50.8825C68.0387 46.2288 65.4187 41.15 63.3837 39.115Z" fill="#9B2D86"/>
<path d="M40 0C17.9086 0 0 17.9086 0 40H2.5C2.5 19.2894 19.2894 2.5 40 2.5C60.7106 2.5 77.5 19.2894 77.5 40C77.5 60.7106 60.7106 77.5 40 77.5V80C62.0914 80 80 62.0914 80 40C80 17.9086 62.0914 0 40 0Z" fill="#9B2D86"/>
<path d="M52.5 23.7501H43.75V26.2501H49.4825L36.9825 38.7501H31.25V41.2501H37.5C37.8316 41.2501 38.1494 41.1182 38.3838 40.8838L51.25 28.0176V32.5001H53.75V25.0001C53.75 24.3097 53.1903 23.7501 52.5 23.7501Z" fill="#9B2D86"/>
<path d="M13.75 38.75C13.4184 38.75 13.1006 38.8819 12.8662 39.1162L9.11621 42.8662L10.8837 44.6338L14.2675 41.25H23.75V38.75H13.75Z" fill="#9B2D86"/>
<path d="M28.75 38.75H26.25V41.25H28.75V38.75Z" fill="#9B2D86"/>
<path d="M10.1211 28.5088L12.5061 29.2588C16.0748 17.7721 26.7216 9.95914 38.7498 10.0001V7.50008C25.6289 7.45633 14.015 15.9788 10.1211 28.5088Z" fill="#9B2D86"/>
</svg>
