<svg width="80" height="80" viewBox="0 0 80 80" fill="none" xmlns="http://www.w3.org/2000/svg">
<path d="M4.38673 4.38662C4.2662 4.5141 4.17116 4.66344 4.10673 4.82662C4.03635 4.98626 4 5.15882 4 5.33329C4 5.50776 4.03635 5.68031 4.10673 5.83995C4.16792 6.00476 4.26335 6.15472 4.38673 6.27995C4.63948 6.52784 4.97938 6.66669 5.3334 6.66669C5.68741 6.66669 6.02731 6.52784 6.28006 6.27995C6.52795 6.0272 6.6668 5.68731 6.6668 5.33329C6.6668 4.97927 6.52795 4.63937 6.28006 4.38662C6.02221 4.14871 5.68424 4.0166 5.3334 4.0166C4.98255 4.0166 4.64458 4.14871 4.38673 4.38662Z" fill="#9B2D86"/>
<path d="M8.82674 4.10667C8.66194 4.16786 8.51198 4.26329 8.38674 4.38667C8.13886 4.63942 8 4.97931 8 5.33333C8 5.68735 8.13886 6.02725 8.38674 6.28C8.57323 6.46804 8.8115 6.59628 9.07117 6.64837C9.33083 6.70046 9.60012 6.67405 9.84472 6.57249C10.0893 6.47094 10.2981 6.29884 10.4445 6.07815C10.5909 5.85746 10.6683 5.59817 10.6667 5.33333C10.6616 4.98036 10.5235 4.64232 10.2801 4.38667C10.091 4.2042 9.85299 4.0806 9.59498 4.0309C9.33697 3.98119 9.07007 4.00751 8.82674 4.10667Z" fill="#9B2D86"/>
<path d="M12.8267 4.10663C12.6636 4.17107 12.5142 4.26611 12.3867 4.38663C12.1389 4.63939 12 4.97928 12 5.3333C12 5.68732 12.1389 6.02722 12.3867 6.27997C12.5164 6.39764 12.6652 6.49233 12.8267 6.55997C12.987 6.62829 13.1592 6.66453 13.3334 6.66663C13.509 6.66842 13.6832 6.63515 13.8458 6.56877C14.0083 6.5024 14.156 6.40425 14.2802 6.28008C14.4044 6.15592 14.5025 6.00822 14.5689 5.84565C14.6353 5.68308 14.6685 5.50889 14.6667 5.3333C14.6616 4.98033 14.5235 4.64229 14.2801 4.38663C14.0893 4.20704 13.8513 4.08538 13.594 4.0358C13.3367 3.98623 13.0706 4.01079 12.8267 4.10663Z" fill="#9B2D86"/>
<path d="M36.0002 22.6667H17.3335V25.3333H36.0002V22.6667Z" fill="#9B2D86"/>
<path d="M36.0002 30.6667H17.3335V33.3333H36.0002V30.6667Z" fill="#9B2D86"/>
<path d="M42.6668 38.6666H17.3335V41.3333H42.6668V38.6666Z" fill="#9B2D86"/>
<path d="M34.6668 46.6667H17.3335V49.3334H34.6668V46.6667Z" fill="#9B2D86"/>
<path d="M28.0002 54.6667H17.3335V57.3333H28.0002V54.6667Z" fill="#9B2D86"/>
<path d="M25.3335 62.6667H17.3335V65.3333H25.3335V62.6667Z" fill="#9B2D86"/>
<path d="M74.8947 16C74.224 15.9981 73.5596 16.1293 72.94 16.3861C72.3204 16.6429 71.758 17.0202 71.2853 17.496L66.6667 22.1147V4C66.6667 2.93913 66.2452 1.92172 65.4951 1.17157C64.7449 0.421427 63.7275 0 62.6667 0H4C2.93913 0 1.92172 0.421427 1.17157 1.17157C0.421427 1.92172 0 2.93913 0 4V76C0 77.0609 0.421427 78.0783 1.17157 78.8284C1.92172 79.5786 2.93913 80 4 80H62.6667C63.7275 80 64.7449 79.5786 65.4951 78.8284C66.2452 78.0783 66.6667 77.0609 66.6667 76V36.552L78.504 24.7147C79.2184 24.0009 79.705 23.0913 79.9022 22.1009C80.0995 21.1106 79.9985 20.0839 79.6121 19.151C79.2257 18.218 78.5712 17.4206 77.7315 16.8597C76.8917 16.2988 75.9045 15.9996 74.8947 16ZM2.66667 4C2.66667 3.64638 2.80714 3.30724 3.05719 3.05719C3.30724 2.80714 3.64638 2.66667 4 2.66667H62.6667C63.0203 2.66667 63.3594 2.80714 63.6095 3.05719C63.8595 3.30724 64 3.64638 64 4V8H2.66667V4ZM64 76C64 76.3536 63.8595 76.6928 63.6095 76.9428C63.3594 77.1929 63.0203 77.3333 62.6667 77.3333H4C3.64638 77.3333 3.30724 77.1929 3.05719 76.9428C2.80714 76.6928 2.66667 76.3536 2.66667 76V10.6667H64V24.7813L56 32.7813V28.7813L41.8853 14.6667H10.6667V73.3333H56V47.2187L64 39.2187V76ZM32.168 56.6133L28.5587 67.4413L39.3867 63.832L43.2187 60L53.3333 49.8853V70.6667H13.3333V17.3333H40V30.6667H53.3333V35.448L36 52.7813L32.168 56.6133ZM36 56.552L39.448 60L37.9467 61.5013L32.7747 63.2253L34.4987 58.0533L36 56.552ZM42.6667 19.2187L51.448 28H42.6667V19.2187ZM41.3333 58.1147L37.8853 54.6667L69.3333 23.2187L72.7813 26.6667L41.3333 58.1147ZM76.6187 22.8293L74.6667 24.7813L71.2187 21.3333L73.1707 19.3813C73.3952 19.1469 73.6644 18.9596 73.9623 18.8306C74.2602 18.7015 74.5809 18.6333 74.9055 18.6298C75.2302 18.6263 75.5522 18.6877 75.8528 18.8103C76.1534 18.9329 76.4265 19.1143 76.6561 19.3439C76.8857 19.5735 77.0671 19.8466 77.1897 20.1472C77.3123 20.4478 77.3737 20.7698 77.3702 21.0945C77.3667 21.4191 77.2985 21.7398 77.1694 22.0377C77.0404 22.3356 76.8531 22.6047 76.6187 22.8293Z" fill="#9B2D86"/>
</svg>
