<svg width="80" height="80" viewBox="0 0 80 80" fill="none" xmlns="http://www.w3.org/2000/svg">
<g clip-path="url(#clip0)">
<path d="M55.1026 51.3944H22.1575C21.8079 51.3944 21.4729 51.5334 21.2258 51.7805L5.41211 67.5942L7.27549 69.4576L22.703 54.03H53.653C53.3789 55.5942 52.5184 57.9834 49.8314 57.9834H35.3355V60.619H49.8314C55.0433 60.619 56.4204 55.4467 56.4204 52.7122C56.4204 51.9844 55.8303 51.3944 55.1026 51.3944Z" fill="#9B2D86"/>
<path d="M71.848 42.5559C71.3334 42.0415 70.4993 42.0415 69.9847 42.5559L58.1244 54.4162L59.9878 56.2795L70.8122 45.4551C72.5959 47.8222 72.2337 51.1678 69.9847 53.0983L54.5571 68.5259H27.4288C27.0792 68.5259 26.7442 68.6649 26.4971 68.912L17.2725 78.1366L19.1358 80L27.9744 71.1615H55.1027C55.4522 71.1615 55.7873 71.0225 56.0344 70.7754L71.848 54.9617C76.7556 50.0542 73.9934 44.7013 71.848 42.5559Z" fill="#9B2D86"/>
<path d="M64.3273 18.4493H59.5911C59.2299 17.2389 58.7446 16.069 58.1428 14.9584L61.494 11.6072C62.0084 11.0926 62.0084 10.2585 61.494 9.74385L55.9012 4.1524C55.3866 3.63797 54.5525 3.63797 54.0379 4.1524L50.6867 7.50358C49.5763 6.90102 48.4064 6.41524 47.1958 6.054V1.31781C47.1958 0.590047 46.6058 0 45.878 0H37.9712C37.2434 0 36.6534 0.590047 36.6534 1.31781V6.054C35.4428 6.41524 34.2729 6.90102 33.1625 7.50358L29.8113 4.1524C29.2967 3.63797 28.4626 3.63797 27.948 4.1524L22.3552 9.74385C21.8408 10.2585 21.8408 11.0926 22.3552 11.6072L25.7077 14.9584C25.1056 16.069 24.6198 17.2389 24.2581 18.4493H19.5219C18.7941 18.4493 18.2041 19.0393 18.2041 19.7671V27.6739C18.2041 28.4017 18.7941 28.9917 19.5219 28.9917H24.2581C24.6193 30.2021 25.1046 31.372 25.7064 32.4826L22.3552 35.8338C21.8408 36.3484 21.8408 37.1825 22.3552 37.6971L27.948 43.2899C28.4708 43.7842 29.2885 43.7842 29.8113 43.2899L33.1625 39.9374C34.2731 40.5395 35.443 41.0253 36.6534 41.387V46.1232C36.6534 46.8509 37.2434 47.441 37.9712 47.441H45.878C46.6058 47.441 47.1958 46.8509 47.1958 46.1232V41.387C48.4062 41.0256 49.5759 40.5403 50.6867 39.9387L54.0379 43.2899C54.285 43.537 54.62 43.676 54.9696 43.676C55.3191 43.676 55.6541 43.537 55.9012 43.2899L61.4927 37.6971C62.0071 37.1825 62.0071 36.3484 61.4927 35.8338L58.1415 32.4826C58.7436 31.372 59.2294 30.2021 59.5911 28.9917H64.3273C65.055 28.9917 65.6451 28.4017 65.6451 27.6739V19.7671C65.6451 19.0393 65.055 18.4493 64.3273 18.4493ZM63.0096 26.3561H58.5805C57.9695 26.3563 57.4388 26.7763 57.2983 27.3708C56.9085 29.009 56.259 30.5742 55.3743 32.0069C55.0531 32.5269 55.1316 33.1996 55.564 33.6317L58.6991 36.7654L54.9697 40.4948L51.836 37.3585C51.4039 36.9261 50.7312 36.8475 50.2111 37.1687C48.7788 38.0546 47.2136 38.7048 45.5751 39.094C44.9806 39.2345 44.5605 39.7653 44.5604 40.3762V44.8054H39.2892V40.3775C39.289 39.7666 38.8689 39.2358 38.2744 39.0953C36.6359 38.7061 35.0707 38.0559 33.6384 37.17C33.1184 36.8488 32.4456 36.9274 32.0135 37.3598L28.8798 40.4962L25.1504 36.7668L28.2855 33.6304C28.7179 33.1983 28.7965 32.5256 28.4752 32.0055C27.5905 30.5728 26.941 29.0077 26.5512 27.3695C26.4107 26.775 25.88 26.355 25.269 26.3548H20.8399V21.0836H25.2689C25.8798 21.0834 26.4106 20.6633 26.5511 20.0689C26.9408 18.4307 27.5903 16.8656 28.4751 15.4328C28.7963 14.9128 28.7177 14.24 28.2853 13.808L25.1503 10.6742L28.8783 6.94747L32.0134 10.0825C32.4455 10.5149 33.1182 10.5935 33.6382 10.2723C35.0702 9.38623 36.6356 8.73655 38.2743 8.3483C38.8688 8.20778 39.2888 7.67704 39.289 7.06607V2.63561H44.5602V7.06607C44.5605 7.67737 44.9811 8.20828 45.5762 8.3483C47.2149 8.73655 48.7803 9.38623 50.2123 10.2723C50.7323 10.5935 51.405 10.5149 51.8371 10.0825L54.9709 6.94747L58.6991 10.6742L55.564 13.8093C55.1316 14.2414 55.0531 14.9141 55.3743 15.4341C56.259 16.8669 56.9085 18.432 57.2983 20.0702C57.4388 20.6647 57.9695 21.0847 58.5805 21.0849H63.0096V26.3561Z" fill="#9B2D86"/>
<path d="M41.9244 15.8137C37.5575 15.8137 34.0176 19.3536 34.0176 23.7205C34.0176 28.0874 37.5577 31.6273 41.9244 31.6273C46.2895 31.623 49.827 28.0856 49.8312 23.7205C49.8312 19.3536 46.2913 15.8137 41.9244 15.8137ZM41.9244 28.9917C39.0132 28.9917 36.6532 26.6317 36.6532 23.7205C36.6532 20.8093 39.0132 18.4493 41.9244 18.4493C44.8356 18.4493 47.1956 20.8093 47.1956 23.7205C47.1956 26.6317 44.8356 28.9917 41.9244 28.9917Z" fill="#9B2D86"/>
</g>
<defs>
<clipPath id="clip0">
<rect width="80" height="80" fill="white"/>
</clipPath>
</defs>
</svg>
